<?xml version="1.0" encoding="UTF-8"?>
<!DOCTYPE svg PUBLIC "-//W3C//DTD SVG 1.1//EN" "http://www.w3.org/Graphics/SVG/1.1/DTD/svg11.dtd">
<!-- Creator: CorelDRAW 2020 (64-Bit) -->
<svg xmlns="http://www.w3.org/2000/svg" xml:space="preserve" width="3.14961in" height="1.11007in" version="1.1" style="shape-rendering:geometricPrecision; text-rendering:geometricPrecision; image-rendering:optimizeQuality; fill-rule:evenodd; clip-rule:evenodd"
viewBox="0 0 608.83 214.58"
 xmlns:xlink="http://www.w3.org/1999/xlink"
 xmlns:xodm="http://www.corel.com/coreldraw/odm/2003">
 <defs>
  <style type="text/css">
   <![CDATA[
    .fil1 {fill:#FEFEFE;fill-rule:nonzero}
    .fil0 {fill:#FFCC29;fill-rule:nonzero}
   ]]>
  </style>
 </defs>
 <g id="Capa_x0020_1">
  <metadata id="CorelCorpID_0Corel-Layer"/>
  <path class="fil0" d="M12.9 124.2l22.44 0c3.63,0 6.41,-0.94 8.43,-2.75 1.98,-1.85 2.99,-4.47 2.99,-7.89l0 -18.88c0,-3.02 -0.47,-5.58 -1.44,-7.69 -0.94,-2.08 -2.32,-3.69 -4.16,-4.8 -1.85,-1.14 -4,-1.68 -6.48,-1.68l-21.76 0 0 -20.19 21.46 0c3.39,0 6.05,-1.14 7.96,-3.39 1.91,-2.25 2.85,-5.47 2.85,-9.67l0 -14.98c0,-3.32 -0.94,-5.94 -2.85,-7.76 -1.91,-1.85 -4.5,-2.75 -7.76,-2.75l-21.66 0 0 -20.29 22.74 0c6.48,0 12.06,1.14 16.66,3.39 4.63,2.28 8.16,5.58 10.58,9.94 2.45,4.37 3.66,9.61 3.66,15.68l0 15.28c0,4.37 -0.77,8.3 -2.32,11.69 -1.54,3.43 -3.76,6.21 -6.68,8.36 -2.92,2.18 -6.45,3.66 -10.58,4.43 4.53,0.67 8.36,2.12 11.55,4.33 3.19,2.22 5.64,5.14 7.32,8.7 1.71,3.59 2.55,7.73 2.55,12.46l0 19.18c0,6.31 -1.18,11.65 -3.53,16.05 -2.35,4.4 -5.81,7.76 -10.38,10.08 -4.57,2.32 -10.04,3.49 -16.49,3.49l-25.09 0 0 -20.35zm-12.9 -122.73l21.56 0 0 143.08 -21.56 0 0 -143.08z"/>
  <polygon id="1" class="fil0" points="105.03,144.56 83.46,144.56 83.46,1.48 105.03,1.48 "/>
  <path id="2" class="fil0" d="M145.06 13.3l21.53 0 0 131.26 -21.53 0 0 -131.26zm-24.52 -11.82l70.57 0 0 20.59 -70.57 0 0 -20.59z"/>
  <path id="3" class="fil0" d="M221.61 1.48l17.13 0 33.65 143.08 -22.13 0 -20.09 -103.82 -19.98 103.82 -22.13 0 33.55 -143.08zm-11.42 96.16l40.74 0 0 20.15 -40.74 0 0 -20.15z"/>
  <path id="4" class="fil0" d="M309.97 146.03c-7.09,0 -13.13,-1.44 -18.2,-4.33 -5.04,-2.89 -8.9,-7.05 -11.55,-12.49 -2.65,-5.44 -4,-11.99 -4,-19.68l0 -73.02c0,-7.66 1.34,-14.24 4,-19.72 2.65,-5.47 6.52,-9.64 11.55,-12.49 5.07,-2.86 11.12,-4.3 18.2,-4.3 7.15,0 13.27,1.44 18.3,4.3 5.07,2.85 8.9,7.02 11.55,12.49 2.65,5.47 4,12.06 4,19.72l0 8.87 -21.83 0 0 -8.87c0,-3.16 -0.47,-5.84 -1.38,-8.09 -0.94,-2.28 -2.28,-4 -4.1,-5.17 -1.81,-1.18 -4,-1.78 -6.55,-1.78 -2.49,0 -4.6,0.6 -6.38,1.78 -1.78,1.18 -3.12,2.89 -4.1,5.17 -0.94,2.25 -1.41,4.94 -1.41,8.09l0 73.02c0,3.16 0.47,5.84 1.41,8.06 0.97,2.25 2.32,3.93 4.1,5.14 1.78,1.18 3.9,1.75 6.38,1.75 2.55,0 4.74,-0.57 6.55,-1.75 1.81,-1.21 3.16,-2.89 4.1,-5.14 0.91,-2.22 1.38,-4.94 1.38,-8.16l0 -8.77 21.83 0 0 8.77c0,7.69 -1.34,14.24 -4,19.75 -2.65,5.47 -6.48,9.64 -11.55,12.53 -5.04,2.89 -11.15,4.33 -18.3,4.33z"/>
  <path id="5" class="fil0" d="M392.56 146.03c-7.56,0 -14.04,-1.38 -19.45,-4.13 -5.41,-2.75 -9.54,-6.72 -12.36,-11.92 -2.82,-5.17 -4.23,-11.42 -4.23,-18.77l0 -76.48c0,-7.32 1.41,-13.6 4.23,-18.84 2.82,-5.21 6.95,-9.17 12.36,-11.86 5.41,-2.69 11.89,-4.03 19.45,-4.03 7.59,0 14.11,1.34 19.48,4.03 5.37,2.69 9.47,6.65 12.33,11.86 2.85,5.24 4.3,11.52 4.3,18.84l0 76.48c0,7.36 -1.44,13.6 -4.3,18.77 -2.86,5.21 -6.95,9.17 -12.33,11.92 -5.37,2.75 -11.89,4.13 -19.48,4.13zm0 -21.36c2.99,0 5.61,-0.57 7.76,-1.71 2.15,-1.14 3.8,-2.82 4.94,-5 1.11,-2.22 1.65,-4.87 1.65,-8.03l0 -73.99c0,-3.09 -0.54,-5.74 -1.65,-7.93 -1.14,-2.22 -2.79,-3.86 -4.94,-5.04 -2.15,-1.14 -4.77,-1.71 -7.76,-1.71 -3.02,0 -5.61,0.57 -7.73,1.71 -2.15,1.18 -3.76,2.82 -4.87,5.04 -1.14,2.18 -1.68,4.84 -1.68,7.93l0 73.99c0,3.16 0.54,5.81 1.68,8.03 1.11,2.18 2.72,3.86 4.87,5 2.12,1.14 4.7,1.71 7.73,1.71z"/>
  <path id="6" class="fil0" d="M455.13 63.48l26.1 0c2.69,0 5,-0.5 6.99,-1.51 1.95,-1.04 3.46,-2.49 4.47,-4.33 1.01,-1.88 1.51,-4.17 1.51,-6.85l0 -15.25c0,-2.82 -0.5,-5.27 -1.51,-7.32 -1.01,-2.08 -2.52,-3.63 -4.47,-4.7 -1.98,-1.04 -4.3,-1.54 -6.99,-1.54l-26.1 0 0 -20.59 24.52 0c7.66,0 14.24,1.28 19.68,3.8 5.44,2.52 9.61,6.25 12.49,11.12 2.89,4.9 4.33,10.75 4.33,17.57l0 16.73c0,7.02 -1.44,13.03 -4.33,18.07 -2.89,5 -7.09,8.83 -12.56,11.45 -5.47,2.62 -12.02,3.93 -19.61,3.93l-24.52 0 0 -20.55zm-9.84 -62.1l21.26 0 0 143.18 -21.26 0 0 -143.18zm32.08 78.22l19.98 -4.5 22.84 69.46 -23.34 0 -19.48 -64.96z"/>
  <path id="7" class="fil0" d="M558.04 1.48l17.13 0 33.65 143.08 -22.13 0 -20.09 -103.82 -19.98 103.82 -22.13 0 33.55 -143.08zm-11.42 96.16l40.74 0 0 20.15 -40.74 0 0 -20.15z"/>
  <path class="fil1" d="M54.79 183.47l-25.51 0 0 25.6 25.51 0 0 -8.7 6.89 1.31 0 4.28c0,3.35 -0.62,5.62 -1.87,6.82 -1.25,1.21 -3.62,1.81 -7.1,1.81l-21.46 0c-3.48,0 -5.83,-0.59 -7.05,-1.75 -1.22,-1.16 -1.82,-3.45 -1.82,-6.88l0 -19.23c0,-3.39 0.62,-5.69 1.85,-6.88 1.24,-1.19 3.58,-1.8 7.02,-1.8l21.46 0c3.48,0 5.85,0.62 7.1,1.84 1.25,1.22 1.87,3.49 1.87,6.84l0 3.46 -6.89 1.13 0 -7.84z"/>
  <polygon id="1" class="fil1" points="76.35,214.58 76.35,178.12 83.24,178.12 83.24,192.78 112.37,192.78 112.37,178.12 119.26,178.12 119.26,214.58 112.37,214.58 112.37,198.29 83.24,198.29 83.24,214.58 "/>
  <polygon id="2" class="fil1" points="136.14,214.58 136.14,178.04 172.94,178.04 172.94,183.47 143.04,183.47 143.04,192.86 161.05,192.86 161.05,198.29 143.04,198.29 143.04,209.24 173.28,209.24 173.28,214.58 "/>
  <path id="3" class="fil1" d="M217.75 183.47l-25.51 0 0 25.6 25.51 0 0 -8.7 6.89 1.31 0 4.28c0,3.35 -0.62,5.62 -1.87,6.82 -1.25,1.21 -3.62,1.81 -7.1,1.81l-21.46 0c-3.48,0 -5.83,-0.59 -7.05,-1.75 -1.22,-1.16 -1.82,-3.45 -1.82,-6.88l0 -19.23c0,-3.39 0.62,-5.69 1.85,-6.88 1.24,-1.19 3.58,-1.8 7.02,-1.8l21.46 0c3.48,0 5.85,0.62 7.1,1.84 1.25,1.22 1.87,3.49 1.87,6.84l0 3.46 -6.89 1.13 0 -7.84z"/>
  <polygon id="4" class="fil1" points="239.31,214.58 239.31,178.04 246.21,178.04 246.21,193.69 269.27,178.04 278.87,178.04 251.89,195.68 281.88,214.58 270.6,214.58 246.21,198.2 246.21,214.58 "/>
  <polygon id="5" class="fil1" points="330.32,214.58 323.42,214.58 323.42,178.12 330.32,178.12 "/>
  <path id="6" class="fil1" d="M352.91 185.36c0.17,1.06 0.29,2.14 0.37,3.25 0.09,1.09 0.13,2.18 0.13,3.27l0 22.69 -6.38 0 0 -36.54 5.26 0 26.82 23.87c0.78,0.68 1.52,1.41 2.24,2.23 0.72,0.82 1.42,1.74 2.13,2.79 -0.2,-1.11 -0.34,-2.21 -0.45,-3.33 -0.1,-1.12 -0.14,-2.28 -0.14,-3.49l0 -22.06 6.38 0 0 36.54 -4.71 0 -27.36 -24.2c-0.95,-0.9 -1.77,-1.75 -2.46,-2.56 -0.69,-0.79 -1.29,-1.61 -1.82,-2.46z"/>
  <polygon id="7" class="fil1" points="402.54,194.76 402.54,188.47 421.32,188.47 421.32,194.76 "/>
  <path id="8" class="fil1" d="M440.63 209.06l30.51 0 0 -25.6 -30.51 0 0 25.6zm-6.89 -22.35c0,-3.35 0.63,-5.63 1.9,-6.85 1.26,-1.22 3.61,-1.82 7.07,-1.82l26.37 0c3.46,0 5.8,0.6 7.07,1.82 1.26,1.22 1.9,3.5 1.9,6.85l0 19.23c0,3.35 -0.62,5.62 -1.87,6.82 -1.25,1.21 -3.62,1.81 -7.1,1.81l-26.37 0c-3.5,0 -5.87,-0.6 -7.11,-1.8 -1.24,-1.19 -1.85,-3.46 -1.85,-6.84l0 -19.23z"/>
  <path id="9" class="fil1" d="M500.95 178.04l0 31.02 26.72 0 0 -31.02 6.98 0 0 27.91c0,3.38 -0.62,5.64 -1.87,6.84 -1.25,1.19 -3.62,1.8 -7.1,1.8l-22.67 0c-3.48,0 -5.85,-0.6 -7.1,-1.81 -1.25,-1.21 -1.87,-3.48 -1.87,-6.82l0 -27.91 6.89 0z"/>
  <polygon id="10" class="fil1" points="569.12,183.47 569.12,214.58 562.23,214.58 562.23,183.47 544.99,183.47 544.99,178.04 586.44,178.04 586.44,183.47 "/>
 </g>
</svg>
